# xmcd CD database file
#
# Track frame offsets:
#	150
#	32933
#	59870
#
# Disc length: 1091 seconds
#
# Revision: 0
# Processed by: cddbd v1.4PL0 Copyright (c) Steve Scherf et al.
# Submitted via: CDex 1.50Beta7
#
DISCID=2a044103
DTITLE=Grover Washington jr. - Just The Two Of Us
DYEAR=1989
DGENRE=Jazz
TTITLE0=Just The Two Of Us
TTITLE1=The Best Is Yet To Come
TTITLE2=Come Morning
EXTD=YEAR: 1989
EXTT0=
EXTT1=
EXTT2=
PLAYORDER=
